<svg width="37" height="38" viewBox="0 0 37 38" fill="none" xmlns="http://www.w3.org/2000/svg">
<circle cx="18.5" cy="19" r="18" stroke="white"/>
<path d="M23.1504 30C20.2561 30 17.0689 28.1978 13.4156 24.5489C9.82443 20.9622 8 17.6329 8 14.6588C8 12.7411 8.74575 11.0232 10.2195 9.5539C10.8765 8.90137 11.6711 8.39532 12.5456 8.08015C13.1137 7.87596 13.7485 8.07127 14.1036 8.55956L16.8647 12.3949C17.2775 12.9719 17.171 13.7754 16.6206 14.2237L14.4277 15.9416C14.3078 16.0304 14.2723 16.1991 14.3478 16.3278C15.2622 17.8016 16.3453 19.1644 17.5794 20.3851C18.8001 21.6191 20.1673 22.7023 21.6455 23.6123C21.7743 23.6877 21.9429 23.6566 22.0362 23.5324L23.7452 21.3528C24.1935 20.7935 25.0014 20.6825 25.5829 21.0998L29.4271 23.8564C29.9198 24.2071 30.1152 24.8463 29.9065 25.4145C29.7467 25.8495 29.5381 26.2712 29.2895 26.6619C29.0409 27.0481 28.7568 27.4076 28.4283 27.7317C28.2552 27.9048 28.0688 28.069 27.8735 28.2244C26.3775 29.4052 24.8105 30 23.1504 30ZM12.9628 9.48732C12.3236 9.73146 11.7376 10.1088 11.2538 10.5882C10.0641 11.7734 9.46487 13.1451 9.46487 14.6543C9.46487 17.229 11.1428 20.2075 14.4499 23.5057C21.1084 30.1509 24.6419 28.8991 26.9723 27.0658C27.1188 26.9504 27.2609 26.8217 27.3985 26.6885C27.6471 26.4399 27.869 26.1647 28.0555 25.8673C28.233 25.5876 28.3795 25.2902 28.4994 24.9839L24.8194 22.3605L23.1859 24.4379C22.6354 25.1437 21.6455 25.3257 20.882 24.8641C19.3062 23.8919 17.8457 22.7378 16.5451 21.4238C15.2267 20.1232 14.0726 18.6716 13.096 17.0958C12.6343 16.3323 12.8163 15.3424 13.5221 14.7919L15.604 13.1628L12.9628 9.48732Z" fill="white"/>
</svg>
