<svg width="37" height="38" viewBox="0 0 37 38" fill="none" xmlns="http://www.w3.org/2000/svg">
<circle cx="18.5" cy="19" r="18" stroke="white"/>
<path d="M18.4891 5.5002C14.3069 5.47311 10.4505 8.26784 9.31533 12.5141C9.06005 13.4727 8.99488 14.4151 9.00031 15.3196C9.0166 18.526 10.7275 21.2936 12.6611 23.98C14.5948 26.6664 16.7728 29.3149 17.9351 32.2071C18.0655 32.5213 18.424 32.6675 18.739 32.5375C18.8856 32.4725 19.0051 32.3588 19.0649 32.2071C20.2272 29.3149 22.4052 26.6664 24.3389 23.98C26.2725 21.2936 27.9834 18.526 27.9997 15.3196C28.0051 14.4151 27.9399 13.4727 27.6847 12.5141C26.5495 8.27325 22.6931 5.47311 18.5109 5.5002C18.5 5.5002 18.4946 5.5002 18.4891 5.5002ZM18.4891 6.72965C18.4946 6.72965 18.5 6.72965 18.5109 6.72965C22.15 6.69716 25.5066 9.12358 26.4952 12.8282C26.7124 13.6406 26.7776 14.4747 26.7722 15.3142C26.7613 18.0764 25.2405 20.6112 23.3395 23.2543C21.6829 25.5561 19.7981 27.923 18.5 30.5769C17.1964 27.9284 15.3171 25.5561 13.6605 23.2543C11.7595 20.6166 10.2441 18.0764 10.2278 15.3142C10.2224 14.4801 10.2876 13.6406 10.5048 12.8282C11.4934 9.12358 14.8446 6.70257 18.4891 6.72965ZM18.4783 11.0084C16.3111 11.003 14.535 12.7849 14.535 14.9568C14.5404 17.134 16.3165 18.9051 18.4837 18.9051C20.6509 18.9105 22.4161 17.1394 22.4161 14.9676C22.4161 12.7903 20.6454 11.0084 18.4783 11.0084ZM18.4783 12.2433C19.9828 12.2433 21.1886 13.4619 21.194 14.9676C21.194 16.4787 19.9828 17.6756 18.4783 17.6756C16.9737 17.6756 15.768 16.4679 15.7625 14.9568C15.7625 13.4511 16.9737 12.2379 18.4783 12.2433Z" fill="white"/>
</svg>
