<svg width="100" height="24" viewBox="0 0 100 24" fill="none" xmlns="http://www.w3.org/2000/svg">
<path d="M22 12C22 6.48 17.52 2 12 2C6.48 2 2 6.48 2 12C2 16.84 5.44 20.87 10 21.8V15H8V12H10V9.5C10 7.57 11.57 6 13.5 6H16V9H14C13.45 9 13 9.45 13 10V12H16V15H13V21.95C18.05 21.45 22 17.19 22 12Z" fill="#FE6601"/>
<path d="M50 2C55.5286 2 60 6.47143 60 12C60 17.5286 55.5286 22 50 22C44.4714 22 40 17.5286 40 12C40 6.47143 44.4714 2 50 2ZM48.1714 17.2714C52.6 17.2714 55.0286 13.6 55.0286 10.4143V10.1C55.5 9.75714 55.9143 9.32857 56.2286 8.84286C55.8 9.02857 55.3286 9.15714 54.8429 9.22857C55.3429 8.92857 55.7286 8.45714 55.9 7.9C55.4286 8.17143 54.9143 8.37143 54.3714 8.48571C53.9286 8.01429 53.3 7.72857 52.6143 7.72857C51.2857 7.72857 50.2 8.81429 50.2 10.1429C50.2 10.3286 50.2143 10.5143 50.2714 10.6857C48.2714 10.5857 46.4857 9.62857 45.3 8.17143C45.1 8.52857 44.9714 8.94286 44.9714 9.38571C44.9714 10.2143 45.4 10.9571 46.0429 11.3857C45.6429 11.3857 45.2714 11.2714 44.9571 11.0857V11.1143C44.9571 12.2857 45.7857 13.2571 46.8857 13.4857C46.6857 13.5429 46.4714 13.5714 46.2571 13.5714C46.1 13.5714 45.9571 13.5571 45.8 13.5286C46.1 14.4857 47 15.1857 48.0429 15.2C47.2143 15.8429 46.1714 16.2286 45.0429 16.2286C44.8429 16.2286 44.6571 16.2286 44.4714 16.2C45.5286 16.8857 46.8 17.2857 48.1571 17.2857" fill="#FE6601"/>
<path d="M89.0281 2.00123C89.7578 1.99843 90.4876 2.00576 91.2171 2.02323L91.4111 2.03023C91.6351 2.03823 91.8561 2.04823 92.1231 2.06023C93.1871 2.11023 93.9131 2.27823 94.5501 2.52523C95.2101 2.77923 95.7661 3.12323 96.3221 3.67923C96.8305 4.17884 97.2239 4.78318 97.4751 5.45023C97.7221 6.08723 97.8901 6.81423 97.9401 7.87823C97.9521 8.14423 97.9621 8.36623 97.9701 8.59023L97.9761 8.78423C97.9939 9.51342 98.0015 10.2428 97.9991 10.9722L98.0001 11.7182V13.0282C98.0026 13.758 97.9949 14.4877 97.9771 15.2172L97.9711 15.4112C97.9631 15.6352 97.9531 15.8562 97.9411 16.1232C97.8911 17.1872 97.7211 17.9132 97.4751 18.5502C97.2247 19.218 96.8312 19.8228 96.3221 20.3222C95.8221 20.8306 95.2174 21.224 94.5501 21.4752C93.9131 21.7222 93.1871 21.8902 92.1231 21.9402C91.8561 21.9522 91.6351 21.9622 91.4111 21.9702L91.2171 21.9762C90.4876 21.994 89.7578 22.0017 89.0281 21.9992L88.2821 22.0002H86.9731C86.2434 22.0027 85.5136 21.995 84.7841 21.9772L84.5901 21.9712C84.3527 21.9626 84.1154 21.9526 83.8781 21.9412C82.8141 21.8912 82.0881 21.7212 81.4501 21.4752C80.7828 21.2246 80.1783 20.8311 79.6791 20.3222C79.1701 19.8225 78.7763 19.2178 78.5251 18.5502C78.2781 17.9132 78.1101 17.1872 78.0601 16.1232C78.049 15.8859 78.039 15.6486 78.0301 15.4112L78.0251 15.2172C78.0067 14.4877 77.9983 13.758 78.0001 13.0282V10.9722C77.9973 10.2428 78.0046 9.51343 78.0221 8.78423L78.0291 8.59023C78.0371 8.36623 78.0471 8.14423 78.0591 7.87823C78.1091 6.81323 78.2771 6.08823 78.5241 5.45023C78.7755 4.78285 79.1701 4.17868 79.6801 3.68023C80.179 3.17098 80.7831 2.7768 81.4501 2.52523C82.0881 2.27823 82.8131 2.11023 83.8781 2.06023L84.5901 2.03023L84.7841 2.02523C85.5133 2.0068 86.2427 1.99847 86.9721 2.00023L89.0281 2.00123ZM88.0001 7.00123C87.3376 6.99186 86.6798 7.11425 86.0651 7.3613C85.4503 7.60834 84.8907 7.97511 84.4189 8.44029C83.9471 8.90546 83.5725 9.45977 83.3168 10.071C83.0611 10.6822 82.9294 11.3382 82.9294 12.0007C82.9294 12.6633 83.0611 13.3192 83.3168 13.9305C83.5725 14.5417 83.9471 15.096 84.4189 15.5612C84.8907 16.0264 85.4503 16.3931 86.0651 16.6402C86.6798 16.8872 87.3376 17.0096 88.0001 17.0002C89.3262 17.0002 90.5979 16.4734 91.5356 15.5358C92.4733 14.5981 93.0001 13.3263 93.0001 12.0002C93.0001 10.6741 92.4733 9.40238 91.5356 8.4647C90.5979 7.52701 89.3262 7.00123 88.0001 7.00123ZM88.0001 9.00123C88.3986 8.99389 88.7946 9.06603 89.1649 9.21344C89.5352 9.36085 89.8724 9.58057 90.1569 9.85978C90.4413 10.139 90.6673 10.4721 90.8215 10.8396C90.9758 11.2071 91.0553 11.6016 91.0554 12.0002C91.0554 12.3988 90.9761 12.7934 90.8219 13.1609C90.6678 13.5285 90.4419 13.8617 90.1576 14.141C89.8732 14.4203 89.5361 14.6401 89.1658 14.7876C88.7955 14.9352 88.3996 15.0074 88.0011 15.0002C87.2054 15.0002 86.4424 14.6842 85.8798 14.1216C85.3172 13.5589 85.0011 12.7959 85.0011 12.0002C85.0011 11.2046 85.3172 10.4415 85.8798 9.87891C86.4424 9.3163 87.2054 9.00023 88.0011 9.00023L88.0001 9.00123ZM93.2501 5.50123C92.9275 5.51414 92.6224 5.65138 92.3987 5.8842C92.175 6.11702 92.0501 6.42736 92.0501 6.75023C92.0501 7.0731 92.175 7.38344 92.3987 7.61626C92.6224 7.84908 92.9275 7.98632 93.2501 7.99923C93.5816 7.99923 93.8996 7.86753 94.134 7.63311C94.3684 7.39869 94.5001 7.08075 94.5001 6.74923C94.5001 6.41771 94.3684 6.09977 94.134 5.86535C93.8996 5.63093 93.5816 5.49923 93.2501 5.49923V5.50123Z" fill="#FE6601"/>
</svg>
